STARTFONT 2.1
FONT --Tile12R10H-Regular-R-Normal--26-260-72-72-P-160-FONTSPECIFIC-0
SIZE 26 72 72
FONTBOUNDINGBOX 16 26 0 -5
METRICSSET 2
STARTPROPERTIES 19
FONT_ASCENT 21
FONT_DESCENT 5
PIXEL_SIZE 26
RESOLUTION_X 72
RESOLUTION_Y 72
POINT_SIZE 260
FACE_NAME "Modern 12-point 10-pitch H"
FOUNDRY ""
FAMILY_NAME "Tile12R10H"
WEIGHT_NAME "Regular"
RELATIVE_WEIGHT 50
SLANT "R"
SPACING "P"
SETWIDTH_NAME "Normal"
RELATIVE_SETWIDTH 50
ADD_STYLE_NAME ""
AVERAGE_WIDTH 160
CHARSET_REGISTRY "FONTSPECIFIC"
CHARSET_ENCODING "0"
ENDPROPERTIES
CHARS 193
STARTCHAR char08
ENCODING 8
SWIDTH 615 0
DWIDTH 16 0
BBX 13 26 0 -5
VVECTOR 7 21
SWIDTH1 0 -1000
DWIDTH1 0 -26
BITMAP 
0000
0000
0000
0000
0000
0000
8000
8000
8000
8000
8800
9800
B800
FFF8
B800
9800
8800
8000
8000
8000
8000
0000
0000
0000
0000
0000
ENDCHAR
STARTCHAR char09
ENCODING 9
SWIDTH 615 0
DWIDTH 16 0
BBX 13 26 0 -5
VVECTOR 7 21
SWIDTH1 0 -1000
DWIDTH1 0 -26
BITMAP 
0000
0000
0000
0000
0000
0000
0008
0008
0008
0008
0088
00C8
00E8
FFF8
00E8
00C8
0088
0008
0008
0008
0008
0000
0000
0000
0000
0000
ENDCHAR
STARTCHAR char0C
ENCODING 12
SWIDTH 615 0
DWIDTH 16 0
BBX 13 26 0 -5
VVECTOR 7 21
SWIDTH1 0 -1000
DWIDTH1 0 -26
BITMAP 
0000
0000
0000
0000
0000
0000
FFF8
8008
8008
8008
8008
8008
8008
8008
8008
8008
8208
8708
EFB8
1FC0
3FE0
0000
0000
0000
0000
0000
ENDCHAR
STARTCHAR char0D
ENCODING 13
SWIDTH 615 0
DWIDTH 16 0
BBX 12 26 0 -5
VVECTOR 6 21
SWIDTH1 0 -1000
DWIDTH1 0 -26
BITMAP 
0000
0000
0000
0000
0000
0000
3FC0
0020
0010
0010
0010
0010
0010
0010
0010
1010
3010
7020
FFC0
7000
3000
1000
0000
0000
0000
0000
ENDCHAR
STARTCHAR char1C
ENCODING 28
SWIDTH 615 0
DWIDTH 16 0
BBX 13 26 0 -5
VVECTOR 7 21
SWIDTH1 0 -1000
DWIDTH1 0 -26
BITMAP 
0000
0000
0000
0000
0000
0000
0000
0000
0000
1800
3800
7800
FFF8
7800
3800
1800
0000
0000
0000
0000
0000
0000
0000
0000
0000
0000
ENDCHAR
STARTCHAR char1D
ENCODING 29
SWIDTH 615 0
DWIDTH 16 0
BBX 13 26 0 -5
VVECTOR 7 21
SWIDTH1 0 -1000
DWIDTH1 0 -26
BITMAP 
0000
0000
0000
0000
0000
0000
0000
0000
0000
00C0
00E0
00F0
FFF8
00F0
00E0
00C0
0000
0000
0000
0000
0000
0000
0000
0000
0000
0000
ENDCHAR
STARTCHAR char1E
ENCODING 30
SWIDTH 615 0
DWIDTH 16 0
BBX 9 26 0 -5
VVECTOR 5 21
SWIDTH1 0 -1000
DWIDTH1 0 -26
BITMAP 
0000
0000
0000
0000
0000
0000
0800
1C00
3E00
7F00
FF80
0800
0800
0800
0800
0800
0800
0800
0800
0800
0800
0000
0000
0000
0000
0000
ENDCHAR
STARTCHAR char1F
ENCODING 31
SWIDTH 615 0
DWIDTH 16 0
BBX 9 26 0 -5
VVECTOR 5 21
SWIDTH1 0 -1000
DWIDTH1 0 -26
BITMAP 
0000
0000
0000
0000
0000
0000
0800
0800
0800
0800
0800
0800
0800
0800
0800
0800
FF80
7F00
3E00
1C00
0800
0000
0000
0000
0000
0000
ENDCHAR
STARTCHAR char20
ENCODING 32
SWIDTH 615 0
DWIDTH 16 0
BBX 0 0 0 -5
VVECTOR 0 -5
SWIDTH1 0 0
DWIDTH1 0 0
BITMAP 
ENDCHAR
STARTCHAR char21
ENCODING 33
SWIDTH 615 0
DWIDTH 16 0
BBX 1 26 6 -5
VVECTOR 7 21
SWIDTH1 0 -1000
DWIDTH1 0 -26
BITMAP 
00
00
00
80
80
80
80
80
80
80
80
80
80
80
80
80
00
00
00
80
80
00
00
00
00
00
ENDCHAR
STARTCHAR char22
ENCODING 34
SWIDTH 615 0
DWIDTH 16 0
BBX 8 26 4 -5
VVECTOR 8 21
SWIDTH1 0 -1000
DWIDTH1 0 -26
BITMAP 
00
00
00
C3
C3
C3
C3
C3
00
00
00
00
00
00
00
00
00
00
00
00
00
00
00
00
00
00
ENDCHAR
STARTCHAR char23
ENCODING 35
SWIDTH 615 0
DWIDTH 16 0
BBX 12 26 2 -5
VVECTOR 8 21
SWIDTH1 0 -1000
DWIDTH1 0 -26
BITMAP 
0000
0000
0000
0840
0840
0840
0840
0840
7070
1080
1080
1080
1080
1080
E0E0
2100
2100
2100
2100
2100
0000
0000
0000
0000
0000
0000
ENDCHAR
STARTCHAR char24
ENCODING 36
SWIDTH 615 0
DWIDTH 16 0
BBX 11 26 2 -5
VVECTOR 8 21
SWIDTH1 0 -1000
DWIDTH1 0 -26
BITMAP 
0000
0000
0400
0400
0400
3F80
4440
8420
8400
8400
4400
3400
0E00
0580
0440
0420
8420
8420
4440
3F80
0400
0400
0400
0000
0000
0000
ENDCHAR
STARTCHAR char25
ENCODING 37
SWIDTH 615 0
DWIDTH 16 0
BBX 12 26 2 -5
VVECTOR 8 21
SWIDTH1 0 -1000
DWIDTH1 0 -26
BITMAP 
0000
0000
0000
7800
8400
8400
8410
8420
8440
7880
0100
0200
0400
0800
11E0
2210
4210
8210
0210
0210
01E0
0000
0000
0000
0000
0000
ENDCHAR
STARTCHAR char26
ENCODING 38
SWIDTH 615 0
DWIDTH 16 0
BBX 12 26 2 -5
VVECTOR 8 21
SWIDTH1 0 -1000
DWIDTH1 0 -26
BITMAP 
0000
0000
0000
3C00
4200
4200
4200
4200
2400
1800
2400
4400
8200
8200
8100
8090
80A0
8040
80A0
4120
3E10
0000
0000
0000
0000
0000
ENDCHAR
STARTCHAR char27
ENCODING 39
SWIDTH 615 0
DWIDTH 16 0
BBX 2 26 6 -5
VVECTOR 7 21
SWIDTH1 0 -1000
DWIDTH1 0 -26
BITMAP 
00
00
00
C0
C0
C0
C0
C0
00
00
00
00
00
00
00
00
00
00
00
00
00
00
00
00
00
00
ENDCHAR
STARTCHAR char28
ENCODING 40
SWIDTH 615 0
DWIDTH 16 0
BBX 7 26 5 -5
VVECTOR 9 21
SWIDTH1 0 -1000
DWIDTH1 0 -26
BITMAP 
00
02
04
08
10
20
20
40
40
80
80
80
80
80
80
80
80
40
40
20
20
10
08
04
02
00
ENDCHAR
STARTCHAR char29
ENCODING 41
SWIDTH 615 0
DWIDTH 16 0
BBX 7 26 4 -5
VVECTOR 8 21
SWIDTH1 0 -1000
DWIDTH1 0 -26
BITMAP 
00
80
40
20
10
08
08
04
04
02
02
02
02
02
02
02
02
04
04
08
08
10
20
40
80
00
ENDCHAR
STARTCHAR char2A
ENCODING 42
SWIDTH 615 0
DWIDTH 16 0
BBX 11 26 2 -5
VVECTOR 8 21
SWIDTH1 0 -1000
DWIDTH1 0 -26
BITMAP 
0000
0000
0000
0000
0000
2080
1100
0A00
F5E0
0A00
1100
2080
0000
0000
0000
0000
0000
0000
0000
0000
0000
0000
0000
0000
0000
0000
ENDCHAR
STARTCHAR char2B
ENCODING 43
SWIDTH 615 0
DWIDTH 16 0
BBX 11 26 2 -5
VVECTOR 8 21
SWIDTH1 0 -1000
DWIDTH1 0 -26
BITMAP 
0000
0000
0000
0000
0000
0000
0400
0400
0400
0400
0400
FFE0
0400
0400
0400
0400
0400
0000
0000
0000
0000
0000
0000
0000
0000
0000
ENDCHAR
STARTCHAR char2C
ENCODING 44
SWIDTH 615 0
DWIDTH 16 0
BBX 6 26 0 -5
VVECTOR 3 21
SWIDTH1 0 -1000
DWIDTH1 0 -26
BITMAP 
00
00
00
00
00
00
00
00
00
00
00
00
00
00
00
00
00
00
00
0C
18
30
60
C0
00
00
ENDCHAR
STARTCHAR char2D
ENCODING 45
SWIDTH 615 0
DWIDTH 16 0
BBX 12 26 2 -5
VVECTOR 8 21
SWIDTH1 0 -1000
DWIDTH1 0 -26
BITMAP 
0000
0000
0000
0000
0000
0000
0000
0000
0000
0000
0000
FFF0
0000
0000
0000
0000
0000
0000
0000
0000
0000
0000
0000
0000
0000
0000
ENDCHAR
STARTCHAR char2E
ENCODING 46
SWIDTH 615 0
DWIDTH 16 0
BBX 3 26 3 -5
VVECTOR 5 21
SWIDTH1 0 -1000
DWIDTH1 0 -26
BITMAP 
00
00
00
00
00
00
00
00
00
00
00
00
00
00
00
00
00
00
00
E0
E0
00
00
00
00
00
ENDCHAR
STARTCHAR char2F
ENCODING 47
SWIDTH 615 0
DWIDTH 16 0
BBX 14 26 1 -5
VVECTOR 8 21
SWIDTH1 0 -1000
DWIDTH1 0 -26
BITMAP 
0000
0000
0000
0004
0008
0010
0010
0020
0040
0080
0080
0100
0200
0400
0400
0800
1000
2000
2000
4000
8000
0000
0000
0000
0000
0000
ENDCHAR
STARTCHAR char30
ENCODING 48
SWIDTH 615 0
DWIDTH 16 0
BBX 11 26 2 -5
VVECTOR 8 21
SWIDTH1 0 -1000
DWIDTH1 0 -26
BITMAP 
0000
0000
0000
3F80
4040
8020
8020
8020
8020
8020
8020
8020
8020
8020
8020
8020
8020
8020
8020
4040
3F80
0000
0000
0000
0000
0000
ENDCHAR
STARTCHAR char31
ENCODING 49
SWIDTH 615 0
DWIDTH 16 0
BBX 11 26 2 -5
VVECTOR 8 21
SWIDTH1 0 -1000
DWIDTH1 0 -26
BITMAP 
0000
0000
0000
0400
0400
7C00
0400
0400
0400
0400
0400
0400
0400
0400
0400
0400
0400
0400
0400
0400
FFE0
0000
0000
0000
0000
0000
ENDCHAR
STARTCHAR char32
ENCODING 50
SWIDTH 615 0
DWIDTH 16 0
BBX 11 26 2 -5
VVECTOR 8 21
SWIDTH1 0 -1000
DWIDTH1 0 -26
BITMAP 
0000
0000
0000
3F80
4040
8020
8020
0020
0020
0020
0040
0080
0100
0200
0400
0800
1000
2000
4000
8000
FFE0
0000
0000
0000
0000
0000
ENDCHAR
STARTCHAR char33
ENCODING 51
SWIDTH 615 0
DWIDTH 16 0
BBX 11 26 2 -5
VVECTOR 8 21
SWIDTH1 0 -1000
DWIDTH1 0 -26
BITMAP 
0000
0000
0000
3F80
4040
8020
8020
0020
0020
0020
0040
0F80
0040
0020
0020
0020
0020
8020
8020
4040
3F80
0000
0000
0000
0000
0000
ENDCHAR
STARTCHAR char34
ENCODING 52
SWIDTH 615 0
DWIDTH 16 0
BBX 12 26 2 -5
VVECTOR 8 21
SWIDTH1 0 -1000
DWIDTH1 0 -26
BITMAP 
0000
0000
0000
0180
0280
0280
0480
0880
0880
1080
2080
2080
4080
4080
8080
FFF0
0080
0080
0080
0080
0080
0000
0000
0000
0000
0000
ENDCHAR
STARTCHAR char35
ENCODING 53
SWIDTH 615 0
DWIDTH 16 0
BBX 11 26 2 -5
VVECTOR 8 21
SWIDTH1 0 -1000
DWIDTH1 0 -26
BITMAP 
0000
0000
0000
7FC0
4000
4000
4000
4000
4000
4000
7F80
4040
0020
0020
0020
0020
0020
8020
8020
4040
3F80
0000
0000
0000
0000
0000
ENDCHAR
STARTCHAR char36
ENCODING 54
SWIDTH 615 0
DWIDTH 16 0
BBX 11 26 2 -5
VVECTOR 8 21
SWIDTH1 0 -1000
DWIDTH1 0 -26
BITMAP 
0000
0000
0000
1F00
2080
4000
8000
8000
8000
8000
9F00
A080
C040
8020
8020
8020
8020
8020
4040
2080
1F00
0000
0000
0000
0000
0000
ENDCHAR
STARTCHAR char37
ENCODING 55
SWIDTH 615 0
DWIDTH 16 0
BBX 11 26 2 -5
VVECTOR 8 21
SWIDTH1 0 -1000
DWIDTH1 0 -26
BITMAP 
0000
0000
0000
FFE0
0020
0040
0040
0080
0080
0100
0100
0200
0200
0200
0400
0400
0400
0800
0800
0800
0000
0000
0000
0000
0000
0000
ENDCHAR
STARTCHAR char38
ENCODING 56
SWIDTH 615 0
DWIDTH 16 0
BBX 12 26 2 -5
VVECTOR 8 21
SWIDTH1 0 -1000
DWIDTH1 0 -26
BITMAP 
0000
0000
0000
1F80
2040
4020
4020
4020
4020
4020
2040
1F80
2040
4020
8010
8010
8010
8010
4020
2040
1F80
0000
0000
0000
0000
0000
ENDCHAR
STARTCHAR char39
ENCODING 57
SWIDTH 615 0
DWIDTH 16 0
BBX 11 26 2 -5
VVECTOR 8 21
SWIDTH1 0 -1000
DWIDTH1 0 -26
BITMAP 
0000
0000
0000
1F00
2080
4040
8020
8020
8020
8020
8020
4060
20A0
1F20
0020
0020
0020
0020
0040
4080
3F00
0000
0000
0000
0000
0000
ENDCHAR
STARTCHAR char3A
ENCODING 58
SWIDTH 615 0
DWIDTH 16 0
BBX 3 26 3 -5
VVECTOR 5 21
SWIDTH1 0 -1000
DWIDTH1 0 -26
BITMAP 
00
00
00
00
00
00
00
00
00
00
00
E0
E0
00
00
00
00
00
00
E0
E0
00
00
00
00
00
ENDCHAR
STARTCHAR char3B
ENCODING 59
SWIDTH 615 0
DWIDTH 16 0
BBX 7 26 0 -5
VVECTOR 4 21
SWIDTH1 0 -1000
DWIDTH1 0 -26
BITMAP 
00
00
00
00
00
00
00
00
00
00
00
0E
0E
00
00
00
00
00
00
0C
18
30
60
C0
00
00
ENDCHAR
STARTCHAR char3C
ENCODING 60
SWIDTH 615 0
DWIDTH 16 0
BBX 9 26 3 -5
VVECTOR 8 21
SWIDTH1 0 -1000
DWIDTH1 0 -26
BITMAP 
0000
0000
0000
0000
0080
0100
0200
0400
0800
1000
2000
4000
8000
4000
2000
1000
0800
0400
0200
0100
0080
0000
0000
0000
0000
0000
ENDCHAR
STARTCHAR char3D
ENCODING 61
SWIDTH 615 0
DWIDTH 16 0
BBX 12 26 2 -5
VVECTOR 8 21
SWIDTH1 0 -1000
DWIDTH1 0 -26
BITMAP 
0000
0000
0000
0000
0000
0000
0000
0000
0000
FFF0
0000
0000
0000
FFF0
0000
0000
0000
0000
0000
0000
0000
0000
0000
0000
0000
0000
ENDCHAR
STARTCHAR char3E
ENCODING 62
SWIDTH 615 0
DWIDTH 16 0
BBX 9 26 4 -5
VVECTOR 9 21
SWIDTH1 0 -1000
DWIDTH1 0 -26
BITMAP 
0000
0000
0000
0000
8000
4000
2000
1000
0800
0400
0200
0100
0080
0100
0200
0400
0800
1000
2000
4000
8000
0000
0000
0000
0000
0000
ENDCHAR
STARTCHAR char3F
ENCODING 63
SWIDTH 615 0
DWIDTH 16 0
BBX 11 26 2 -5
VVECTOR 8 21
SWIDTH1 0 -1000
DWIDTH1 0 -26
BITMAP 
0000
0000
0000
3F80
4040
8020
8020
0020
0020
0020
0040
0080
0100
0200
0400
0400
0400
0000
0000
0400
0400
0000
0000
0000
0000
0000
ENDCHAR
STARTCHAR char40
ENCODING 64
SWIDTH 615 0
DWIDTH 16 0
BBX 13 26 2 -5
VVECTOR 9 21
SWIDTH1 0 -1000
DWIDTH1 0 -26
BITMAP 
0000
0000
0000
0000
0000
3FE0
4010
8008
8008
8788
8888
8888
8888
8888
8888
8770
8000
8000
4000
3F00
0000
0000
0000
0000
0000
0000
ENDCHAR
STARTCHAR char41
ENCODING 65
SWIDTH 615 0
DWIDTH 16 0
BBX 12 26 2 -5
VVECTOR 8 21
SWIDTH1 0 -1000
DWIDTH1 0 -26
BITMAP 
0000
0000
0000
0600
0900
0900
1080
1080
1080
2040
2040
2040
4020
7FE0
4020
4020
8010
8010
8010
8010
8010
0000
0000
0000
0000
0000
ENDCHAR
STARTCHAR char42
ENCODING 66
SWIDTH 615 0
DWIDTH 16 0
BBX 12 26 2 -5
VVECTOR 8 21
SWIDTH1 0 -1000
DWIDTH1 0 -26
BITMAP 
0000
0000
0000
FF80
8040
8020
8020
8020
8020
8020
8040
FFC0
8020
8010
8010
8010
8010
8010
8010
8020
FFC0
0000
0000
0000
0000
0000
ENDCHAR
STARTCHAR char43
ENCODING 67
SWIDTH 615 0
DWIDTH 16 0
BBX 12 26 2 -5
VVECTOR 8 21
SWIDTH1 0 -1000
DWIDTH1 0 -26
BITMAP 
0000
0000
0000
3FC0
4020
8010
8010
8010
8000
8000
8000
8000
8000
8000
8000
8000
8010
8010
8010
4020
3FC0
0000
0000
0000
0000
0000
ENDCHAR
STARTCHAR char44
ENCODING 68
SWIDTH 615 0
DWIDTH 16 0
BBX 12 26 2 -5
VVECTOR 8 21
SWIDTH1 0 -1000
DWIDTH1 0 -26
BITMAP 
0000
0000
0000
FF80
8040
8020
8010
8010
8010
8010
8010
8010
8010
8010
8010
8010
8010
8010
8020
8040
FF80
0000
0000
0000
0000
0000
ENDCHAR
STARTCHAR char45
ENCODING 69
SWIDTH 615 0
DWIDTH 16 0
BBX 11 26 2 -5
VVECTOR 8 21
SWIDTH1 0 -1000
DWIDTH1 0 -26
BITMAP 
0000
0000
0000
FFE0
8000
8000
8000
8000
8000
8000
8000
FFC0
8000
8000
8000
8000
8000
8000
8000
8000
FFE0
0000
0000
0000
0000
0000
ENDCHAR
STARTCHAR char46
ENCODING 70
SWIDTH 615 0
DWIDTH 16 0
BBX 11 26 2 -5
VVECTOR 8 21
SWIDTH1 0 -1000
DWIDTH1 0 -26
BITMAP 
0000
0000
0000
FFE0
8000
8000
8000
8000
8000
8000
8000
FFC0
8000
8000
8000
8000
8000
8000
8000
8000
8000
0000
0000
0000
0000
0000
ENDCHAR
STARTCHAR char47
ENCODING 71
SWIDTH 615 0
DWIDTH 16 0
BBX 12 26 2 -5
VVECTOR 8 21
SWIDTH1 0 -1000
DWIDTH1 0 -26
BITMAP 
0000
0000
0000
3FC0
4020
8010
8010
8010
8000
8000
8000
8000
81F0
8010
8010
8010
8010
8030
8050
4090
3F10
0000
0000
0000
0000
0000
ENDCHAR
STARTCHAR char48
ENCODING 72
SWIDTH 615 0
DWIDTH 16 0
BBX 12 26 2 -5
VVECTOR 8 21
SWIDTH1 0 -1000
DWIDTH1 0 -26
BITMAP 
0000
0000
0000
8010
8010
8010
8010
8010
8010
8010
8010
FFF0
8010
8010
8010
8010
8010
8010
8010
8010
8010
0000
0000
0000
0000
0000
ENDCHAR
STARTCHAR char49
ENCODING 73
SWIDTH 615 0
DWIDTH 16 0
BBX 9 26 3 -5
VVECTOR 8 21
SWIDTH1 0 -1000
DWIDTH1 0 -26
BITMAP 
0000
0000
0000
FF80
0800
0800
0800
0800
0800
0800
0800
0800
0800
0800
0800
0800
0800
0800
0800
0800
FF80
0000
0000
0000
0000
0000
ENDCHAR
STARTCHAR char4A
ENCODING 74
SWIDTH 615 0
DWIDTH 16 0
BBX 10 26 2 -5
VVECTOR 7 21
SWIDTH1 0 -1000
DWIDTH1 0 -26
BITMAP 
0000
0000
0000
07C0
0040
0040
0040
0040
0040
0040
0040
0040
0040
0040
0040
0040
8040
8040
8040
4080
3F00
0000
0000
0000
0000
0000
ENDCHAR
STARTCHAR char4B
ENCODING 75
SWIDTH 615 0
DWIDTH 16 0
BBX 13 26 2 -5
VVECTOR 9 21
SWIDTH1 0 -1000
DWIDTH1 0 -26
BITMAP 
0000
0000
0000
8010
8020
8040
8080
8100
8200
8400
8800
9000
A800
C400
8200
8100
8080
8040
8020
8010
8008
0000
0000
0000
0000
0000
ENDCHAR
STARTCHAR char4C
ENCODING 76
SWIDTH 615 0
DWIDTH 16 0
BBX 11 26 2 -5
VVECTOR 8 21
SWIDTH1 0 -1000
DWIDTH1 0 -26
BITMAP 
0000
0000
0000
8000
8000
8000
8000
8000
8000
8000
8000
8000
8000
8000
8000
8000
8000
8000
8000
8000
FFE0
0000
0000
0000
0000
0000
ENDCHAR
STARTCHAR char4D
ENCODING 77
SWIDTH 615 0
DWIDTH 16 0
BBX 12 26 2 -5
VVECTOR 8 21
SWIDTH1 0 -1000
DWIDTH1 0 -26
BITMAP 
0000
0000
0000
8010
C030
A050
9090
8910
8610
8010
8010
8010
8010
8010
8010
8010
8010
8010
8010
8010
8010
0000
0000
0000
0000
0000
ENDCHAR
STARTCHAR char4E
ENCODING 78
SWIDTH 615 0
DWIDTH 16 0
BBX 12 26 2 -5
VVECTOR 8 21
SWIDTH1 0 -1000
DWIDTH1 0 -26
BITMAP 
0000
0000
0000
8010
C010
A010
A010
9010
9010
8810
8410
8410
8210
8210
8110
8090
8090
8050
8050
8030
8010
0000
0000
0000
0000
0000
ENDCHAR
STARTCHAR char4F
ENCODING 79
SWIDTH 615 0
DWIDTH 16 0
BBX 12 26 2 -5
VVECTOR 8 21
SWIDTH1 0 -1000
DWIDTH1 0 -26
BITMAP 
0000
0000
0000
3FC0
4020
8010
8010
8010
8010
8010
8010
8010
8010
8010
8010
8010
8010
8010
8010
4020
3FC0
0000
0000
0000
0000
0000
ENDCHAR
STARTCHAR char50
ENCODING 80
SWIDTH 615 0
DWIDTH 16 0
BBX 12 26 2 -5
VVECTOR 8 21
SWIDTH1 0 -1000
DWIDTH1 0 -26
BITMAP 
0000
0000
0000
FFC0
8020
8010
8010
8010
8010
8010
8010
8020
FFC0
8000
8000
8000
8000
8000
8000
8000
8000
0000
0000
0000
0000
0000
ENDCHAR
STARTCHAR char51
ENCODING 81
SWIDTH 615 0
DWIDTH 16 0
BBX 12 26 2 -5
VVECTOR 8 21
SWIDTH1 0 -1000
DWIDTH1 0 -26
BITMAP 
0000
0000
0000
3FC0
4020
8010
8010
8010
8010
8010
8010
8010
8010
8010
8010
8010
8010
8410
8210
4120
3FC0
0040
0020
0000
0000
0000
ENDCHAR
STARTCHAR char52
ENCODING 82
SWIDTH 615 0
DWIDTH 16 0
BBX 12 26 2 -5
VVECTOR 8 21
SWIDTH1 0 -1000
DWIDTH1 0 -26
BITMAP 
0000
0000
0000
FFC0
8020
8010
8010
8010
8010
8010
8020
FFC0
8020
8010
8010
8010
8010
8010
8010
8010
8010
0000
0000
0000
0000
0000
ENDCHAR
STARTCHAR char53
ENCODING 83
SWIDTH 615 0
DWIDTH 16 0
BBX 12 26 2 -5
VVECTOR 8 21
SWIDTH1 0 -1000
DWIDTH1 0 -26
BITMAP 
0000
0000
0000
1F80
2040
4020
8020
8000
8000
4000
3000
0C00
0300
00C0
0020
0010
8010
8010
4020
2040
1F80
0000
0000
0000
0000
0000
ENDCHAR
STARTCHAR char54
ENCODING 84
SWIDTH 615 0
DWIDTH 16 0
BBX 13 26 1 -5
VVECTOR 8 21
SWIDTH1 0 -1000
DWIDTH1 0 -26
BITMAP 
0000
0000
0000
FFF8
0200
0200
0200
0200
0200
0200
0200
0200
0200
0200
0200
0200
0200
0200
0200
0200
0200
0000
0000
0000
0000
0000
ENDCHAR
STARTCHAR char55
ENCODING 85
SWIDTH 615 0
DWIDTH 16 0
BBX 12 26 2 -5
VVECTOR 8 21
SWIDTH1 0 -1000
DWIDTH1 0 -26
BITMAP 
0000
0000
0000
8010
8010
8010
8010
8010
8010
8010
8010
8010
8010
8010
8010
8010
8010
8010
8010
4020
3FC0
0000
0000
0000
0000
0000
ENDCHAR
STARTCHAR char56
ENCODING 86
SWIDTH 615 0
DWIDTH 16 0
BBX 12 26 2 -5
VVECTOR 8 21
SWIDTH1 0 -1000
DWIDTH1 0 -26
BITMAP 
0000
0000
0000
8010
8010
8010
8010
4020
4020
4020
4020
2040
2040
2040
2040
1080
1080
1080
0900
0900
0600
0000
0000
0000
0000
0000
ENDCHAR
STARTCHAR char57
ENCODING 87
SWIDTH 615 0
DWIDTH 16 0
BBX 11 26 2 -5
VVECTOR 8 21
SWIDTH1 0 -1000
DWIDTH1 0 -26
BITMAP 
0000
0000
0000
8020
8020
8020
8020
8020
8020
8020
8420
8420
8420
8420
8A20
8A20
5140
5140
2080
2080
2080
0000
0000
0000
0000
0000
ENDCHAR
STARTCHAR char58
ENCODING 88
SWIDTH 615 0
DWIDTH 16 0
BBX 12 26 2 -5
VVECTOR 8 21
SWIDTH1 0 -1000
DWIDTH1 0 -26
BITMAP 
0000
0000
0000
8010
8010
4020
2040
2040
1080
0900
0900
0400
0200
0A00
0900
1080
2080
2040
4020
8020
8010
0000
0000
0000
0000
0000
ENDCHAR
STARTCHAR char59
ENCODING 89
SWIDTH 615 0
DWIDTH 16 0
BBX 11 26 2 -5
VVECTOR 8 21
SWIDTH1 0 -1000
DWIDTH1 0 -26
BITMAP 
0000
0000
0000
8020
8020
4040
4040
2080
2080
1100
1100
0A00
0400
0400
0400
0400
0400
0400
0400
0400
0400
0000
0000
0000
0000
0000
ENDCHAR
STARTCHAR char5A
ENCODING 90
SWIDTH 615 0
DWIDTH 16 0
BBX 12 26 2 -5
VVECTOR 8 21
SWIDTH1 0 -1000
DWIDTH1 0 -26
BITMAP 
0000
0000
0000
FFF0
0020
0040
0040
0080
0100
0100
0200
0200
0400
0400
0800
1000
1000
2000
2000
4000
FFF0
0000
0000
0000
0000
0000
ENDCHAR
STARTCHAR char5B
ENCODING 91
SWIDTH 615 0
DWIDTH 16 0
BBX 7 26 5 -5
VVECTOR 9 21
SWIDTH1 0 -1000
DWIDTH1 0 -26
BITMAP 
00
FE
80
80
80
80
80
80
80
80
80
80
80
80
80
80
80
80
80
80
80
80
80
80
FE
00
ENDCHAR
STARTCHAR char5C
ENCODING 92
SWIDTH 615 0
DWIDTH 16 0
BBX 14 26 1 -5
VVECTOR 8 21
SWIDTH1 0 -1000
DWIDTH1 0 -26
BITMAP 
0000
0000
0000
8000
4000
2000
2000
1000
0800
0400
0400
0200
0100
0080
0080
0040
0020
0010
0010
0008
0004
0000
0000
0000
0000
0000
ENDCHAR
STARTCHAR char5D
ENCODING 93
SWIDTH 615 0
DWIDTH 16 0
BBX 7 26 4 -5
VVECTOR 8 21
SWIDTH1 0 -1000
DWIDTH1 0 -26
BITMAP 
00
FE
02
02
02
02
02
02
02
02
02
02
02
02
02
02
02
02
02
02
02
02
02
02
FE
00
ENDCHAR
STARTCHAR char5E
ENCODING 94
SWIDTH 615 0
DWIDTH 16 0
BBX 7 26 4 -5
VVECTOR 8 21
SWIDTH1 0 -1000
DWIDTH1 0 -26
BITMAP 
10
28
44
82
00
00
00
00
00
00
00
00
00
00
00
00
00
00
00
00
00
00
00
00
00
00
ENDCHAR
STARTCHAR char5F
ENCODING 95
SWIDTH 615 0
DWIDTH 16 0
BBX 16 26 0 -5
VVECTOR 8 21
SWIDTH1 0 -1000
DWIDTH1 0 -26
BITMAP 
0000
0000
0000
0000
0000
0000
0000
0000
0000
0000
0000
0000
0000
0000
0000
0000
0000
0000
0000
0000
0000
0000
0000
0000
0000
FFFF
ENDCHAR
STARTCHAR char60
ENCODING 96
SWIDTH 615 0
DWIDTH 16 0
BBX 4 26 6 -5
VVECTOR 8 21
SWIDTH1 0 -1000
DWIDTH1 0 -26
BITMAP 
C0
60
10
00
00
00
00
00
00
00
00
00
00
00
00
00
00
00
00
00
00
00
00
00
00
00
ENDCHAR
STARTCHAR char61
ENCODING 97
SWIDTH 615 0
DWIDTH 16 0
BBX 11 26 2 -5
VVECTOR 8 21
SWIDTH1 0 -1000
DWIDTH1 0 -26
BITMAP 
0000
0000
0000
0000
0000
0000
0000
0000
0000
1F80
2040
4020
0020
0020
3FE0
4020
8020
8020
8060
40A0
3F20
0000
0000
0000
0000
0000
ENDCHAR
STARTCHAR char62
ENCODING 98
SWIDTH 615 0
DWIDTH 16 0
BBX 11 26 2 -5
VVECTOR 8 21
SWIDTH1 0 -1000
DWIDTH1 0 -26
BITMAP 
0000
0000
0000
8000
8000
8000
8000
8000
8000
9F80
A040
C020
8020
8020
8020
8020
8020
8020
C020
A040
9F80
0000
0000
0000
0000
0000
ENDCHAR
STARTCHAR char63
ENCODING 99
SWIDTH 615 0
DWIDTH 16 0
BBX 11 26 2 -5
VVECTOR 8 21
SWIDTH1 0 -1000
DWIDTH1 0 -26
BITMAP 
0000
0000
0000
0000
0000
0000
0000
0000
0000
3F80
4040
8020
8020
8000
8000
8000
8000
8020
8020
4040
3F80
0000
0000
0000
0000
0000
ENDCHAR
STARTCHAR char64
ENCODING 100
SWIDTH 615 0
DWIDTH 16 0
BBX 11 26 2 -5
VVECTOR 8 21
SWIDTH1 0 -1000
DWIDTH1 0 -26
BITMAP 
0000
0000
0000
0020
0020
0020
0020
0020
0020
3F20
40A0
8060
8020
8020
8020
8020
8020
8020
8060
40A0
3F20
0000
0000
0000
0000
0000
ENDCHAR
STARTCHAR char65
ENCODING 101
SWIDTH 615 0
DWIDTH 16 0
BBX 11 26 2 -5
VVECTOR 8 21
SWIDTH1 0 -1000
DWIDTH1 0 -26
BITMAP 
0000
0000
0000
0000
0000
0000
0000
0000
0000
3F80
4040
8020
8020
8020
FFE0
8000
8000
8000
8020
4040
3F80
0000
0000
0000
0000
0000
ENDCHAR
STARTCHAR char66
ENCODING 102
SWIDTH 615 0
DWIDTH 16 0
BBX 12 26 2 -5
VVECTOR 8 21
SWIDTH1 0 -1000
DWIDTH1 0 -26
BITMAP 
0000
0000
0000
0000
0000
0000
03E0
0410
0800
0800
0800
FFC0
0800
0800
0800
0800
0800
0800
0800
0800
0800
0000
0000
0000
0000
0000
ENDCHAR
STARTCHAR char67
ENCODING 103
SWIDTH 615 0
DWIDTH 16 0
BBX 11 26 2 -5
VVECTOR 8 21
SWIDTH1 0 -1000
DWIDTH1 0 -26
BITMAP 
0000
0000
0000
0000
0000
0000
0000
0000
0000
3F20
40A0
8060
8020
8020
8020
8020
8020
8020
8060
40A0
3F20
0020
0020
0020
4040
3F80
ENDCHAR
STARTCHAR char68
ENCODING 104
SWIDTH 615 0
DWIDTH 16 0
BBX 11 26 2 -5
VVECTOR 8 21
SWIDTH1 0 -1000
DWIDTH1 0 -26
BITMAP 
0000
0000
0000
8000
8000
8000
8000
8000
8000
9F80
A040
C020
8020
8020
8020
8020
8020
8020
8020
8020
8020
0000
0000
0000
0000
0000
ENDCHAR
STARTCHAR char69
ENCODING 105
SWIDTH 615 0
DWIDTH 16 0
BBX 11 26 2 -5
VVECTOR 8 21
SWIDTH1 0 -1000
DWIDTH1 0 -26
BITMAP 
0000
0000
0000
0000
0C00
0C00
0000
0000
0000
FC00
0400
0400
0400
0400
0400
0400
0400
0400
0400
0400
FFE0
0000
0000
0000
0000
0000
ENDCHAR
STARTCHAR char6A
ENCODING 106
SWIDTH 615 0
DWIDTH 16 0
BBX 9 26 1 -5
VVECTOR 6 21
SWIDTH1 0 -1000
DWIDTH1 0 -26
BITMAP 
0000
0000
0000
0000
0300
0300
0000
0000
0000
0F80
0080
0080
0080
0080
0080
0080
0080
0080
0080
0080
0080
0080
0080
8080
4100
3E00
ENDCHAR
STARTCHAR char6B
ENCODING 107
SWIDTH 615 0
DWIDTH 16 0
BBX 11 26 2 -5
VVECTOR 8 21
SWIDTH1 0 -1000
DWIDTH1 0 -26
BITMAP 
0000
0000
0000
8000
8000
8000
8000
8000
8000
8040
8080
8100
8200
8400
8800
9400
A200
C100
8080
8040
8020
0000
0000
0000
0000
0000
ENDCHAR
STARTCHAR char6C
ENCODING 108
SWIDTH 615 0
DWIDTH 16 0
BBX 11 26 2 -5
VVECTOR 8 21
SWIDTH1 0 -1000
DWIDTH1 0 -26
BITMAP 
0000
0000
0000
FC00
0400
0400
0400
0400
0400
0400
0400
0400
0400
0400
0400
0400
0400
0400
0400
0400
FFE0
0000
0000
0000
0000
0000
ENDCHAR
STARTCHAR char6D
ENCODING 109
SWIDTH 615 0
DWIDTH 16 0
BBX 13 26 1 -5
VVECTOR 8 21
SWIDTH1 0 -1000
DWIDTH1 0 -26
BITMAP 
0000
0000
0000
0000
0000
0000
0000
0000
0000
BCF0
C308
8208
8208
8208
8208
8208
8208
8208
8208
8208
8208
0000
0000
0000
0000
0000
ENDCHAR
STARTCHAR char6E
ENCODING 110
SWIDTH 615 0
DWIDTH 16 0
BBX 11 26 2 -5
VVECTOR 8 21
SWIDTH1 0 -1000
DWIDTH1 0 -26
BITMAP 
0000
0000
0000
0000
0000
0000
0000
0000
0000
9F80
A040
C020
8020
8020
8020
8020
8020
8020
8020
8020
8020
0000
0000
0000
0000
0000
ENDCHAR
STARTCHAR char6F
ENCODING 111
SWIDTH 615 0
DWIDTH 16 0
BBX 11 26 2 -5
VVECTOR 8 21
SWIDTH1 0 -1000
DWIDTH1 0 -26
BITMAP 
0000
0000
0000
0000
0000
0000
0000
0000
0000
3F80
4040
8020
8020
8020
8020
8020
8020
8020
8020
4040
3F80
0000
0000
0000
0000
0000
ENDCHAR
STARTCHAR char70
ENCODING 112
SWIDTH 615 0
DWIDTH 16 0
BBX 11 26 2 -5
VVECTOR 8 21
SWIDTH1 0 -1000
DWIDTH1 0 -26
BITMAP 
0000
0000
0000
0000
0000
0000
0000
0000
0000
9F80
A040
C020
8020
8020
8020
8020
8020
8020
C020
A040
9F80
8000
8000
8000
8000
8000
ENDCHAR
STARTCHAR char71
ENCODING 113
SWIDTH 615 0
DWIDTH 16 0
BBX 11 26 2 -5
VVECTOR 8 21
SWIDTH1 0 -1000
DWIDTH1 0 -26
BITMAP 
0000
0000
0000
0000
0000
0000
0000
0000
0000
3F20
40A0
8060
8020
8020
8020
8020
8020
8020
8060
40A0
3F20
0020
0020
0020
0020
0020
ENDCHAR
STARTCHAR char72
ENCODING 114
SWIDTH 615 0
DWIDTH 16 0
BBX 11 26 2 -5
VVECTOR 8 21
SWIDTH1 0 -1000
DWIDTH1 0 -26
BITMAP 
0000
0000
0000
0000
0000
0000
0000
0000
0000
F3E0
1400
1800
1000
1000
1000
1000
1000
1000
1000
1000
FE00
0000
0000
0000
0000
0000
ENDCHAR
STARTCHAR char73
ENCODING 115
SWIDTH 615 0
DWIDTH 16 0
BBX 10 26 3 -5
VVECTOR 8 21
SWIDTH1 0 -1000
DWIDTH1 0 -26
BITMAP 
0000
0000
0000
0000
0000
0000
0000
0000
0000
3F00
4080
8040
8000
4000
3800
0700
0080
0040
8040
4080
3F00
0000
0000
0000
0000
0000
ENDCHAR
STARTCHAR char74
ENCODING 116
SWIDTH 615 0
DWIDTH 16 0
BBX 11 26 2 -5
VVECTOR 8 21
SWIDTH1 0 -1000
DWIDTH1 0 -26
BITMAP 
0000
0000
0000
0000
0000
0000
0800
0800
0800
FFC0
0800
0800
0800
0800
0800
0800
0800
0800
0800
0420
03C0
0000
0000
0000
0000
0000
ENDCHAR
STARTCHAR char75
ENCODING 117
SWIDTH 615 0
DWIDTH 16 0
BBX 11 26 2 -5
VVECTOR 8 21
SWIDTH1 0 -1000
DWIDTH1 0 -26
BITMAP 
0000
0000
0000
0000
0000
0000
0000
0000
0000
8020
8020
8020
8020
8020
8020
8020
8020
8020
8060
40A0
3F20
0000
0000
0000
0000
0000
ENDCHAR
STARTCHAR char76
ENCODING 118
SWIDTH 615 0
DWIDTH 16 0
BBX 12 26 2 -5
VVECTOR 8 21
SWIDTH1 0 -1000
DWIDTH1 0 -26
BITMAP 
0000
0000
0000
0000
0000
0000
0000
0000
0000
8010
8010
4020
4020
4020
2040
2040
1080
1080
0900
0900
0600
0000
0000
0000
0000
0000
ENDCHAR
STARTCHAR char77
ENCODING 119
SWIDTH 615 0
DWIDTH 16 0
BBX 11 26 2 -5
VVECTOR 8 21
SWIDTH1 0 -1000
DWIDTH1 0 -26
BITMAP 
0000
0000
0000
0000
0000
0000
0000
0000
0000
8020
8020
8420
8420
8420
8420
8420
8420
8A20
5140
2080
2080
0000
0000
0000
0000
0000
ENDCHAR
STARTCHAR char78
ENCODING 120
SWIDTH 615 0
DWIDTH 16 0
BBX 11 26 2 -5
VVECTOR 8 21
SWIDTH1 0 -1000
DWIDTH1 0 -26
BITMAP 
0000
0000
0000
0000
0000
0000
0000
0000
0000
8020
4040
2080
1100
0A00
0400
0400
0A00
1100
2080
4040
8020
0000
0000
0000
0000
0000
ENDCHAR
STARTCHAR char79
ENCODING 121
SWIDTH 615 0
DWIDTH 16 0
BBX 12 26 1 -5
VVECTOR 7 21
SWIDTH1 0 -1000
DWIDTH1 0 -26
BITMAP 
0000
0000
0000
0000
0000
0000
0000
0000
0000
4010
4010
2020
2020
1040
1040
0880
0880
0500
0500
0200
0200
0400
0400
0800
1000
E000
ENDCHAR
STARTCHAR char7A
ENCODING 122
SWIDTH 615 0
DWIDTH 16 0
BBX 12 26 2 -5
VVECTOR 8 21
SWIDTH1 0 -1000
DWIDTH1 0 -26
BITMAP 
0000
0000
0000
0000
0000
0000
0000
0000
0000
FFF0
0020
0040
0080
0100
0200
0400
0800
1000
2000
4000
FFF0
0000
0000
0000
0000
0000
ENDCHAR
STARTCHAR char7B
ENCODING 123
SWIDTH 615 0
DWIDTH 16 0
BBX 11 26 2 -5
VVECTOR 8 21
SWIDTH1 0 -1000
DWIDTH1 0 -26
BITMAP 
0000
01E0
0200
0400
0400
0400
0400
0400
0400
0400
0400
0800
F000
0800
0400
0400
0400
0400
0400
0400
0400
0400
0400
0200
01E0
0000
ENDCHAR
STARTCHAR char7C
ENCODING 124
SWIDTH 615 0
DWIDTH 16 0
BBX 1 26 0 -5
VVECTOR 1 21
SWIDTH1 0 -1000
DWIDTH1 0 -26
BITMAP 
00
00
80
80
80
80
80
80
80
80
80
80
80
80
80
80
80
80
80
80
80
80
80
80
80
00
ENDCHAR
STARTCHAR char7D
ENCODING 125
SWIDTH 615 0
DWIDTH 16 0
BBX 11 26 3 -5
VVECTOR 9 21
SWIDTH1 0 -1000
DWIDTH1 0 -26
BITMAP 
0000
F000
0800
0400
0400
0400
0400
0400
0400
0400
0400
0200
01E0
0200
0400
0400
0400
0400
0400
0400
0400
0400
0400
0800
F000
0000
ENDCHAR
STARTCHAR char7E
ENCODING 126
SWIDTH 615 0
DWIDTH 16 0
BBX 11 26 2 -5
VVECTOR 8 21
SWIDTH1 0 -1000
DWIDTH1 0 -26
BITMAP 
7820
8420
83C0
0000
0000
0000
0000
0000
0000
0000
0000
0000
0000
0000
0000
0000
0000
0000
0000
0000
0000
0000
0000
0000
0000
0000
ENDCHAR
STARTCHAR char80
ENCODING 128
SWIDTH 615 0
DWIDTH 16 0
BBX 12 26 2 -5
VVECTOR 8 21
SWIDTH1 0 -1000
DWIDTH1 0 -26
BITMAP 
30C0
0000
0000
0600
0900
0900
1080
1080
1080
2040
2040
2040
4020
7FE0
4020
4020
8010
8010
8010
8010
8010
0000
0000
0000
0000
0000
ENDCHAR
STARTCHAR char81
ENCODING 129
SWIDTH 615 0
DWIDTH 16 0
BBX 12 26 2 -5
VVECTOR 8 21
SWIDTH1 0 -1000
DWIDTH1 0 -26
BITMAP 
0F00
1080
1080
0F00
0900
0900
1080
1080
1080
2040
2040
2040
4020
7FE0
4020
4020
8010
8010
8010
8010
8010
0000
0000
0000
0000
0000
ENDCHAR
STARTCHAR char82
ENCODING 130
SWIDTH 615 0
DWIDTH 16 0
BBX 12 26 2 -5
VVECTOR 8 21
SWIDTH1 0 -1000
DWIDTH1 0 -26
BITMAP 
0000
0000
0000
3FC0
4020
8010
8010
8010
8000
8000
8000
8000
8000
8000
8000
8000
8010
8010
8010
4020
3FC0
0600
0200
0200
0E00
0000
ENDCHAR
STARTCHAR char83
ENCODING 131
SWIDTH 615 0
DWIDTH 16 0
BBX 11 26 2 -5
VVECTOR 8 21
SWIDTH1 0 -1000
DWIDTH1 0 -26
BITMAP 
0180
0300
0400
0000
FFE0
8000
8000
8000
8000
8000
8000
FFC0
8000
8000
8000
8000
8000
8000
8000
8000
FFE0
0000
0000
0000
0000
0000
ENDCHAR
STARTCHAR char84
ENCODING 132
SWIDTH 615 0
DWIDTH 16 0
BBX 12 26 2 -5
VVECTOR 8 21
SWIDTH1 0 -1000
DWIDTH1 0 -26
BITMAP 
3C40
4780
0000
0000
8010
C010
A010
A010
9010
8810
8810
8410
8210
8210
8110
8110
8090
8050
8050
8030
8010
0000
0000
0000
0000
0000
ENDCHAR
STARTCHAR char85
ENCODING 133
SWIDTH 615 0
DWIDTH 16 0
BBX 12 26 2 -5
VVECTOR 8 21
SWIDTH1 0 -1000
DWIDTH1 0 -26
BITMAP 
6060
0000
0000
3FC0
4020
8010
8010
8010
8010
8010
8010
8010
8010
8010
8010
8010
8010
8010
8010
4020
3FC0
0000
0000
0000
0000
0000
ENDCHAR
STARTCHAR char86
ENCODING 134
SWIDTH 615 0
DWIDTH 16 0
BBX 12 26 2 -5
VVECTOR 8 21
SWIDTH1 0 -1000
DWIDTH1 0 -26
BITMAP 
30C0
0000
0000
8010
8010
8010
8010
8010
8010
8010
8010
8010
8010
8010
8010
8010
8010
8010
8010
4020
3FC0
0000
0000
0000
0000
0000
ENDCHAR
STARTCHAR char87
ENCODING 135
SWIDTH 615 0
DWIDTH 16 0
BBX 11 26 2 -5
VVECTOR 8 21
SWIDTH1 0 -1000
DWIDTH1 0 -26
BITMAP 
0000
0000
0000
00C0
0180
0200
0000
0000
0000
1F80
2040
4020
0020
0020
3FE0
4020
8020
8020
8060
40A0
3F20
0000
0000
0000
0000
0000
ENDCHAR
STARTCHAR char88
ENCODING 136
SWIDTH 615 0
DWIDTH 16 0
BBX 11 26 2 -5
VVECTOR 8 21
SWIDTH1 0 -1000
DWIDTH1 0 -26
BITMAP 
0000
0000
0000
0C00
0600
0100
0000
0000
0000
1F80
2040
4020
0020
0020
3FE0
4020
8020
8020
8060
40A0
3F20
0000
0000
0000
0000
0000
ENDCHAR
STARTCHAR char89
ENCODING 137
SWIDTH 615 0
DWIDTH 16 0
BBX 11 26 2 -5
VVECTOR 8 21
SWIDTH1 0 -1000
DWIDTH1 0 -26
BITMAP 
0000
0000
0000
0600
0900
1080
0000
0000
0000
1F80
2040
4020
0020
0020
3FE0
4020
8020
8020
8060
40A0
3F20
0000
0000
0000
0000
0000
ENDCHAR
STARTCHAR char8A
ENCODING 138
SWIDTH 615 0
DWIDTH 16 0
BBX 11 26 2 -5
VVECTOR 8 21
SWIDTH1 0 -1000
DWIDTH1 0 -26
BITMAP 
0000
0000
0000
0000
18C0
0000
0000
0000
0000
1F80
2040
4020
0020
0020
3FE0
4020
8020
8020
8060
40A0
3F20
0000
0000
0000
0000
0000
ENDCHAR
STARTCHAR char8B
ENCODING 139
SWIDTH 615 0
DWIDTH 16 0
BBX 11 26 2 -5
VVECTOR 8 21
SWIDTH1 0 -1000
DWIDTH1 0 -26
BITMAP 
0000
0000
0000
3820
4620
41C0
0000
0000
0000
1F80
2040
4020
0020
0020
3FE0
4020
8020
8020
8060
40A0
3F20
0000
0000
0000
0000
0000
ENDCHAR
STARTCHAR char8C
ENCODING 140
SWIDTH 615 0
DWIDTH 16 0
BBX 11 26 2 -5
VVECTOR 8 21
SWIDTH1 0 -1000
DWIDTH1 0 -26
BITMAP 
0000
0F00
1080
1080
1080
0F00
0000
0000
0000
1F80
2040
4020
0020
0020
3FE0
4020
8020
8020
8060
40A0
3F20
0000
0000
0000
0000
0000
ENDCHAR
STARTCHAR char8D
ENCODING 141
SWIDTH 615 0
DWIDTH 16 0
BBX 11 26 2 -5
VVECTOR 8 21
SWIDTH1 0 -1000
DWIDTH1 0 -26
BITMAP 
0000
0000
0000
0000
0000
0000
0000
0000
0000
3F80
4040
8020
8020
8000
8000
8000
8000
8020
8020
4040
3F80
0600
0200
0200
0E00
0000
ENDCHAR
STARTCHAR char8E
ENCODING 142
SWIDTH 615 0
DWIDTH 16 0
BBX 11 26 2 -5
VVECTOR 8 21
SWIDTH1 0 -1000
DWIDTH1 0 -26
BITMAP 
0000
0000
0000
0180
0300
0400
0000
0000
0000
3F80
4040
8020
8020
8020
FFE0
8000
8000
8000
8020
4040
3F80
0000
0000
0000
0000
0000
ENDCHAR
STARTCHAR char8F
ENCODING 143
SWIDTH 615 0
DWIDTH 16 0
BBX 11 26 2 -5
VVECTOR 8 21
SWIDTH1 0 -1000
DWIDTH1 0 -26
BITMAP 
0000
0000
0000
3000
1800
0400
0000
0000
0000
3F80
4040
8020
8020
8020
FFE0
8000
8000
8000
8020
4040
3F80
0000
0000
0000
0000
0000
ENDCHAR
STARTCHAR char90
ENCODING 144
SWIDTH 615 0
DWIDTH 16 0
BBX 11 26 2 -5
VVECTOR 8 21
SWIDTH1 0 -1000
DWIDTH1 0 -26
BITMAP 
0000
0000
0400
0A00
1100
2080
0000
0000
0000
3F80
4040
8020
8020
8020
FFE0
8000
8000
8000
8020
4040
3F80
0000
0000
0000
0000
0000
ENDCHAR
STARTCHAR char91
ENCODING 145
SWIDTH 615 0
DWIDTH 16 0
BBX 11 26 2 -5
VVECTOR 8 21
SWIDTH1 0 -1000
DWIDTH1 0 -26
BITMAP 
0000
0000
0000
0000
3180
0000
0000
0000
0000
3F80
4040
8020
8020
8020
FFE0
8000
8000
8000
8020
4040
3F80
0000
0000
0000
0000
0000
ENDCHAR
STARTCHAR char92
ENCODING 146
SWIDTH 615 0
DWIDTH 16 0
BBX 11 26 2 -5
VVECTOR 8 21
SWIDTH1 0 -1000
DWIDTH1 0 -26
BITMAP 
0000
0000
0000
0300
0600
0800
0000
0000
0000
FC00
0400
0400
0400
0400
0400
0400
0400
0400
0400
0400
FFE0
0000
0000
0000
0000
0000
ENDCHAR
STARTCHAR char93
ENCODING 147
SWIDTH 615 0
DWIDTH 16 0
BBX 11 26 2 -5
VVECTOR 8 21
SWIDTH1 0 -1000
DWIDTH1 0 -26
BITMAP 
0000
0000
0000
3000
1800
0400
0000
0000
0000
FC00
0400
0400
0400
0400
0400
0400
0400
0400
0400
0400
FFE0
0000
0000
0000
0000
0000
ENDCHAR
STARTCHAR char94
ENCODING 148
SWIDTH 615 0
DWIDTH 16 0
BBX 11 26 2 -5
VVECTOR 8 21
SWIDTH1 0 -1000
DWIDTH1 0 -26
BITMAP 
0000
0000
0000
0C00
1200
2100
0000
0000
0000
FC00
0400
0400
0400
0400
0400
0400
0400
0400
0400
0400
FFE0
0000
0000
0000
0000
0000
ENDCHAR
STARTCHAR char95
ENCODING 149
SWIDTH 615 0
DWIDTH 16 0
BBX 11 26 2 -5
VVECTOR 8 21
SWIDTH1 0 -1000
DWIDTH1 0 -26
BITMAP 
0000
0000
0000
0000
6300
0000
0000
0000
0000
FC00
0400
0400
0400
0400
0400
0400
0400
0400
0400
0400
FFE0
0000
0000
0000
0000
0000
ENDCHAR
STARTCHAR char96
ENCODING 150
SWIDTH 615 0
DWIDTH 16 0
BBX 11 26 2 -5
VVECTOR 8 21
SWIDTH1 0 -1000
DWIDTH1 0 -26
BITMAP 
0000
0000
0000
7040
8C40
8380
0000
0000
0000
9F80
A040
C020
8020
8020
8020
8020
8020
8020
8020
8020
8020
0000
0000
0000
0000
0000
ENDCHAR
STARTCHAR char97
ENCODING 151
SWIDTH 615 0
DWIDTH 16 0
BBX 11 26 2 -5
VVECTOR 8 21
SWIDTH1 0 -1000
DWIDTH1 0 -26
BITMAP 
0000
0000
0000
0180
0300
0400
0000
0000
0000
3F80
4040
8020
8020
8020
8020
8020
8020
8020
8020
4040
3F80
0000
0000
0000
0000
0000
ENDCHAR
STARTCHAR char98
ENCODING 152
SWIDTH 615 0
DWIDTH 16 0
BBX 11 26 2 -5
VVECTOR 8 21
SWIDTH1 0 -1000
DWIDTH1 0 -26
BITMAP 
0000
0000
0000
3000
1800
0400
0000
0000
0000
3F80
4040
8020
8020
8020
8020
8020
8020
8020
8020
4040
3F80
0000
0000
0000
0000
0000
ENDCHAR
STARTCHAR char99
ENCODING 153
SWIDTH 615 0
DWIDTH 16 0
BBX 11 26 2 -5
VVECTOR 8 21
SWIDTH1 0 -1000
DWIDTH1 0 -26
BITMAP 
0000
0000
0400
0A00
1100
2080
0000
0000
0000
3F80
4040
8020
8020
8020
8020
8020
8020
8020
8020
4040
3F80
0000
0000
0000
0000
0000
ENDCHAR
STARTCHAR char9A
ENCODING 154
SWIDTH 615 0
DWIDTH 16 0
BBX 11 26 2 -5
VVECTOR 8 21
SWIDTH1 0 -1000
DWIDTH1 0 -26
BITMAP 
0000
0000
0000
0000
60C0
0000
0000
0000
0000
3F80
4040
8020
8020
8020
8020
8020
8020
8020
8020
4040
3F80
0000
0000
0000
0000
0000
ENDCHAR
STARTCHAR char9B
ENCODING 155
SWIDTH 615 0
DWIDTH 16 0
BBX 11 26 2 -5
VVECTOR 8 21
SWIDTH1 0 -1000
DWIDTH1 0 -26
BITMAP 
0000
0000
0000
3840
4440
4380
0000
0000
0000
3F80
4040
8020
8020
8020
8020
8020
8020
8020
8020
4040
3F80
0000
0000
0000
0000
0000
ENDCHAR
STARTCHAR char9C
ENCODING 156
SWIDTH 615 0
DWIDTH 16 0
BBX 11 26 2 -5
VVECTOR 8 21
SWIDTH1 0 -1000
DWIDTH1 0 -26
BITMAP 
0000
0000
0000
0180
0300
0400
0000
0000
0000
8020
8020
8020
8020
8020
8020
8020
8020
8020
8060
40A0
3F20
0000
0000
0000
0000
0000
ENDCHAR
STARTCHAR char9D
ENCODING 157
SWIDTH 615 0
DWIDTH 16 0
BBX 11 26 2 -5
VVECTOR 8 21
SWIDTH1 0 -1000
DWIDTH1 0 -26
BITMAP 
0000
0000
0000
3000
1800
0400
0000
0000
0000
8020
8020
8020
8020
8020
8020
8020
8020
8020
8060
40A0
3F20
0000
0000
0000
0000
0000
ENDCHAR
STARTCHAR char9E
ENCODING 158
SWIDTH 615 0
DWIDTH 16 0
BBX 11 26 2 -5
VVECTOR 8 21
SWIDTH1 0 -1000
DWIDTH1 0 -26
BITMAP 
0000
0000
0400
0A00
1100
2080
0000
0000
0000
8020
8020
8020
8020
8020
8020
8020
8020
8020
8060
40A0
3F20
0000
0000
0000
0000
0000
ENDCHAR
STARTCHAR char9F
ENCODING 159
SWIDTH 615 0
DWIDTH 16 0
BBX 11 26 2 -5
VVECTOR 8 21
SWIDTH1 0 -1000
DWIDTH1 0 -26
BITMAP 
0000
0000
0000
0000
60C0
0000
0000
0000
0000
8020
8020
8020
8020
8020
8020
8020
8020
8020
8060
40A0
3F20
0000
0000
0000
0000
0000
ENDCHAR
STARTCHAR charA0
ENCODING 160
SWIDTH 615 0
DWIDTH 16 0
BBX 11 26 2 -5
VVECTOR 8 21
SWIDTH1 0 -1000
DWIDTH1 0 -26
BITMAP 
0000
0000
0400
0400
0400
0400
FFE0
0400
0400
0400
0400
0400
0400
0400
0400
0400
0400
0400
0400
0400
0400
0400
0400
0000
0000
0000
ENDCHAR
STARTCHAR charA1
ENCODING 161
SWIDTH 615 0
DWIDTH 16 0
BBX 6 26 5 -5
VVECTOR 8 21
SWIDTH1 0 -1000
DWIDTH1 0 -26
BITMAP 
00
00
00
78
84
84
84
84
84
78
00
00
00
00
00
00
00
00
00
00
00
00
00
00
00
00
ENDCHAR
STARTCHAR charA2
ENCODING 162
SWIDTH 615 0
DWIDTH 16 0
BBX 11 26 2 -5
VVECTOR 8 21
SWIDTH1 0 -1000
DWIDTH1 0 -26
BITMAP 
0000
0000
0000
0000
0000
0400
0400
0400
3F80
4440
8420
8420
8400
8400
8400
8420
8420
4440
3F80
0400
0400
0400
0000
0000
0000
0000
ENDCHAR
STARTCHAR charA3
ENCODING 163
SWIDTH 615 0
DWIDTH 16 0
BBX 12 26 2 -5
VVECTOR 8 21
SWIDTH1 0 -1000
DWIDTH1 0 -26
BITMAP 
0000
0000
0000
0000
0000
0000
0F00
1000
1000
1000
1000
1000
FF00
1000
1000
1000
1000
1010
1010
1020
1FC0
0000
0000
0000
0000
0000
ENDCHAR
STARTCHAR charA4
ENCODING 164
SWIDTH 615 0
DWIDTH 16 0
BBX 10 26 3 -5
VVECTOR 8 21
SWIDTH1 0 -1000
DWIDTH1 0 -26
BITMAP 
0000
0000
1E00
2100
4080
4000
4000
3000
4C00
8200
8100
8080
8040
4040
2040
1040
0C80
0300
0080
0080
4080
2100
1E00
0000
0000
0000
ENDCHAR
STARTCHAR charA5
ENCODING 165
SWIDTH 615 0
DWIDTH 16 0
BBX 7 26 4 -5
VVECTOR 8 21
SWIDTH1 0 -1000
DWIDTH1 0 -26
BITMAP 
00
00
00
00
00
00
00
00
00
FE
FE
FE
FE
FE
FE
00
00
00
00
00
00
00
00
00
00
00
ENDCHAR
STARTCHAR charA6
ENCODING 166
SWIDTH 615 0
DWIDTH 16 0
BBX 12 26 2 -5
VVECTOR 8 21
SWIDTH1 0 -1000
DWIDTH1 0 -26
BITMAP 
0000
0000
0000
10F0
7080
F080
F080
F080
F080
F080
7080
1080
1080
1080
1080
1080
1080
1080
1080
1080
1080
1080
0000
0000
0000
0000
ENDCHAR
STARTCHAR charA7
ENCODING 167
SWIDTH 615 0
DWIDTH 16 0
BBX 11 26 2 -5
VVECTOR 8 21
SWIDTH1 0 -1000
DWIDTH1 0 -26
BITMAP 
0000
0000
0000
3F80
4040
8020
8020
8020
8020
8020
8040
8780
8040
8020
8020
8020
8020
8020
8020
9040
8F80
8000
8000
0000
0000
0000
ENDCHAR
STARTCHAR charA8
ENCODING 168
SWIDTH 615 0
DWIDTH 16 0
BBX 13 26 1 -5
VVECTOR 8 21
SWIDTH1 0 -1000
DWIDTH1 0 -26
BITMAP 
0000
0000
0000
0000
0000
3FE0
4010
8008
8008
8F08
8888
8888
8888
8F08
8908
8888
8008
8008
4010
3FE0
0000
0000
0000
0000
0000
0000
ENDCHAR
STARTCHAR charA9
ENCODING 169
SWIDTH 615 0
DWIDTH 16 0
BBX 13 26 1 -5
VVECTOR 8 21
SWIDTH1 0 -1000
DWIDTH1 0 -26
BITMAP 
0000
0000
0000
0000
0000
3FE0
4010
8008
8008
8708
8888
8808
8808
8808
8888
8708
8008
8008
4010
3FE0
0000
0000
0000
0000
0000
0000
ENDCHAR
STARTCHAR charAA
ENCODING 170
SWIDTH 615 0
DWIDTH 16 0
BBX 13 26 1 -5
VVECTOR 8 21
SWIDTH1 0 -1000
DWIDTH1 0 -26
BITMAP 
0000
0000
0000
0000
0000
FA08
2318
22A8
2248
0000
0000
0000
0000
0000
0000
0000
0000
0000
0000
0000
0000
0000
0000
0000
0000
0000
ENDCHAR
STARTCHAR charAB
ENCODING 171
SWIDTH 615 0
DWIDTH 16 0
BBX 4 26 6 -5
VVECTOR 8 21
SWIDTH1 0 -1000
DWIDTH1 0 -26
BITMAP 
30
60
80
00
00
00
00
00
00
00
00
00
00
00
00
00
00
00
00
00
00
00
00
00
00
00
ENDCHAR
STARTCHAR charAC
ENCODING 172
SWIDTH 615 0
DWIDTH 16 0
BBX 9 26 3 -5
VVECTOR 8 21
SWIDTH1 0 -1000
DWIDTH1 0 -26
BITMAP 
C180
0000
0000
0000
0000
0000
0000
0000
0000
0000
0000
0000
0000
0000
0000
0000
0000
0000
0000
0000
0000
0000
0000
0000
0000
0000
ENDCHAR
STARTCHAR charAD
ENCODING 173
SWIDTH 615 0
DWIDTH 16 0
BBX 11 26 2 -5
VVECTOR 8 21
SWIDTH1 0 -1000
DWIDTH1 0 -26
BITMAP 
0000
0000
0000
0000
0000
0000
0200
0200
0200
FFE0
0400
0400
0400
FFE0
0800
0800
0800
0000
0000
0000
0000
0000
0000
0000
0000
0000
ENDCHAR
STARTCHAR charAE
ENCODING 174
SWIDTH 615 0
DWIDTH 16 0
BBX 12 26 2 -5
VVECTOR 8 21
SWIDTH1 0 -1000
DWIDTH1 0 -26
BITMAP 
0000
0000
0000
0FF0
1200
2200
2200
4200
4200
8200
8200
8200
FFF0
8200
8200
8200
8200
8200
8200
8200
83F0
0000
0000
0000
0000
0000
ENDCHAR
STARTCHAR charAF
ENCODING 175
SWIDTH 615 0
DWIDTH 16 0
BBX 12 26 2 -5
VVECTOR 8 21
SWIDTH1 0 -1000
DWIDTH1 0 -26
BITMAP 
0000
0000
0000
3FC0
4020
8010
8010
8030
8050
8090
8110
8210
8410
8810
9010
A010
C010
8010
8010
4020
3FC0
0000
0000
0000
0000
0000
ENDCHAR
STARTCHAR charB0
ENCODING 176
SWIDTH 615 0
DWIDTH 16 0
BBX 12 26 2 -5
VVECTOR 8 21
SWIDTH1 0 -1000
DWIDTH1 0 -26
BITMAP 
0000
0000
0000
0000
0000
0000
0000
0000
70E0
8910
8210
8410
8910
70E0
0000
0000
0000
0000
0000
0000
0000
0000
0000
0000
0000
0000
ENDCHAR
STARTCHAR charB1
ENCODING 177
SWIDTH 615 0
DWIDTH 16 0
BBX 11 26 2 -5
VVECTOR 8 21
SWIDTH1 0 -1000
DWIDTH1 0 -26
BITMAP 
0000
0000
0000
0000
0000
0000
0400
0400
0400
0400
0400
FFE0
0400
0400
0400
0400
0400
0000
0000
0000
FFE0
0000
0000
0000
0000
0000
ENDCHAR
STARTCHAR charB2
ENCODING 178
SWIDTH 615 0
DWIDTH 16 0
BBX 11 26 2 -5
VVECTOR 8 21
SWIDTH1 0 -1000
DWIDTH1 0 -26
BITMAP 
0000
0000
0000
0000
0000
0000
0100
0200
0400
0800
1000
2000
1000
0800
0400
0200
0100
0000
0000
0000
FFE0
0000
0000
0000
0000
0000
ENDCHAR
STARTCHAR charB3
ENCODING 179
SWIDTH 615 0
DWIDTH 16 0
BBX 11 26 3 -5
VVECTOR 9 21
SWIDTH1 0 -1000
DWIDTH1 0 -26
BITMAP 
0000
0000
0000
0000
0000
0000
1000
0800
0400
0200
0100
0080
0100
0200
0400
0800
1000
0000
0000
0000
FFE0
0000
0000
0000
0000
0000
ENDCHAR
STARTCHAR charB4
ENCODING 180
SWIDTH 615 0
DWIDTH 16 0
BBX 11 26 2 -5
VVECTOR 8 21
SWIDTH1 0 -1000
DWIDTH1 0 -26
BITMAP 
0000
0000
0000
8020
8020
4040
4040
2080
2080
1100
1100
0A00
0400
0400
FFE0
0400
0400
0400
0400
0400
0400
0000
0000
0000
0000
0000
ENDCHAR
STARTCHAR charB5
ENCODING 181
SWIDTH 615 0
DWIDTH 16 0
BBX 12 26 2 -5
VVECTOR 8 21
SWIDTH1 0 -1000
DWIDTH1 0 -26
BITMAP 
0000
0000
0000
0000
0000
0000
0000
0000
0000
8040
8040
8040
8040
8040
8040
8040
8040
8040
8040
C0C0
BF30
8000
8000
8000
0000
0000
ENDCHAR
STARTCHAR charB6
ENCODING 182
SWIDTH 615 0
DWIDTH 16 0
BBX 11 26 2 -5
VVECTOR 8 21
SWIDTH1 0 -1000
DWIDTH1 0 -26
BITMAP 
0000
0000
0000
0F00
0080
0040
0020
0020
0020
1F20
20A0
4060
8020
8020
8020
8020
8020
8020
4040
2080
1F00
0000
0000
0000
0000
0000
ENDCHAR
STARTCHAR charB7
ENCODING 183
SWIDTH 615 0
DWIDTH 16 0
BBX 12 26 2 -5
VVECTOR 8 21
SWIDTH1 0 -1000
DWIDTH1 0 -26
BITMAP 
0000
FFC0
8020
4010
2000
2000
1000
0800
0800
0400
0200
0200
0100
0100
0200
0200
0400
0800
0800
1000
2000
2000
4010
8020
FFC0
0000
ENDCHAR
STARTCHAR charB8
ENCODING 184
SWIDTH 615 0
DWIDTH 16 0
BBX 13 26 1 -5
VVECTOR 8 21
SWIDTH1 0 -1000
DWIDTH1 0 -26
BITMAP 
0000
0000
0000
FFF8
1040
1040
1040
1040
1040
1040
1040
1040
1040
1040
1040
1040
1040
1040
1040
1040
1040
0000
0000
0000
0000
0000
ENDCHAR
STARTCHAR charB9
ENCODING 185
SWIDTH 615 0
DWIDTH 16 0
BBX 12 26 2 -5
VVECTOR 8 21
SWIDTH1 0 -1000
DWIDTH1 0 -26
BITMAP 
0000
0000
0000
0000
0000
0000
0000
0000
0000
7FF0
9080
1080
1080
1080
1080
1080
1080
1080
1080
1080
1080
0000
0000
0000
0000
0000
ENDCHAR
STARTCHAR charBA
ENCODING 186
SWIDTH 615 0
DWIDTH 16 0
BBX 11 26 2 -5
VVECTOR 8 21
SWIDTH1 0 -1000
DWIDTH1 0 -26
BITMAP 
0000
03C0
0420
0400
0400
0400
0400
0400
0400
0400
0400
0400
0400
0400
0400
0400
0400
0400
0400
0400
0400
0400
0400
8400
7800
0000
ENDCHAR
STARTCHAR charBB
ENCODING 187
SWIDTH 615 0
DWIDTH 16 0
BBX 11 26 2 -5
VVECTOR 8 21
SWIDTH1 0 -1000
DWIDTH1 0 -26
BITMAP 
0000
0000
0000
0000
0000
0000
3F80
4040
0020
0020
3FE0
4020
8020
8020
8060
40A0
3F20
0000
0000
0000
FFE0
0000
0000
0000
0000
0000
ENDCHAR
STARTCHAR charBC
ENCODING 188
SWIDTH 615 0
DWIDTH 16 0
BBX 11 26 2 -5
VVECTOR 8 21
SWIDTH1 0 -1000
DWIDTH1 0 -26
BITMAP 
0000
0000
0000
0000
0000
0000
3F80
4040
8020
8020
8020
8020
8020
8020
8020
4040
3F80
0000
0000
0000
FFE0
0000
0000
0000
0000
0000
ENDCHAR
STARTCHAR charBD
ENCODING 189
SWIDTH 615 0
DWIDTH 16 0
BBX 12 26 2 -5
VVECTOR 8 21
SWIDTH1 0 -1000
DWIDTH1 0 -26
BITMAP 
0000
0000
0000
1F80
2040
4020
8010
8010
8010
8010
8010
8010
4020
4020
4020
2040
2040
2040
1080
1080
F0F0
0000
0000
0000
0000
0000
ENDCHAR
STARTCHAR charBE
ENCODING 190
SWIDTH 615 0
DWIDTH 16 0
BBX 13 26 1 -5
VVECTOR 8 21
SWIDTH1 0 -1000
DWIDTH1 0 -26
BITMAP 
0000
0000
0000
0000
0000
0000
0000
0000
0000
38E0
4510
0208
0208
0208
3FF8
4200
8200
8200
8200
4508
38F0
0000
0000
0000
0000
0000
ENDCHAR
STARTCHAR charBF
ENCODING 191
SWIDTH 615 0
DWIDTH 16 0
BBX 11 26 2 -5
VVECTOR 8 21
SWIDTH1 0 -1000
DWIDTH1 0 -26
BITMAP 
0000
0000
0000
0000
0000
0000
0000
0000
0000
3F80
4040
80A0
8120
8220
8420
8820
9020
A020
C020
4040
3F80
0000
0000
0000
0000
0000
ENDCHAR
STARTCHAR charC0
ENCODING 192
SWIDTH 615 0
DWIDTH 16 0
BBX 11 26 2 -5
VVECTOR 8 21
SWIDTH1 0 -1000
DWIDTH1 0 -26
BITMAP 
0000
0000
0000
0400
0400
0000
0000
0400
0400
0400
0800
1000
2000
4000
8000
8000
8000
8020
8020
4040
3F80
0000
0000
0000
0000
0000
ENDCHAR
STARTCHAR charC1
ENCODING 193
SWIDTH 615 0
DWIDTH 16 0
BBX 1 26 7 -5
VVECTOR 8 21
SWIDTH1 0 -1000
DWIDTH1 0 -26
BITMAP 
00
00
00
00
00
80
80
00
00
80
80
80
80
80
80
80
80
80
80
80
80
00
00
00
00
00
ENDCHAR
STARTCHAR charC2
ENCODING 194
SWIDTH 615 0
DWIDTH 16 0
BBX 12 26 2 -5
VVECTOR 8 21
SWIDTH1 0 -1000
DWIDTH1 0 -26
BITMAP 
0000
0000
0000
0000
0000
0000
0000
0000
0000
0000
0000
FFF0
0010
0010
0010
0010
0000
0000
0000
0000
0000
0000
0000
0000
0000
0000
ENDCHAR
STARTCHAR charC3
ENCODING 195
SWIDTH 615 0
DWIDTH 16 0
BBX 13 26 2 -5
VVECTOR 9 21
SWIDTH1 0 -1000
DWIDTH1 0 -26
BITMAP 
0000
01F8
0100
0100
0100
0100
0100
0100
0100
0100
0100
0100
0100
0100
0100
0100
0100
0100
0100
0100
F100
0900
0500
0300
0100
0000
ENDCHAR
STARTCHAR charC4
ENCODING 196
SWIDTH 615 0
DWIDTH 16 0
BBX 11 26 2 -5
VVECTOR 8 21
SWIDTH1 0 -1000
DWIDTH1 0 -26
BITMAP 
0000
0000
0000
03C0
0420
0400
0400
0400
0400
3F80
0400
0400
0400
0400
0400
0400
0400
0400
0400
0400
0400
8400
7800
0000
0000
0000
ENDCHAR
STARTCHAR charC5
ENCODING 197
SWIDTH 615 0
DWIDTH 16 0
BBX 12 26 2 -5
VVECTOR 8 21
SWIDTH1 0 -1000
DWIDTH1 0 -26
BITMAP 
0000
0000
0000
0000
0000
0000
0000
0000
7C10
83E0
0000
0000
7C10
83E0
0000
0000
0000
0000
0000
0000
0000
0000
0000
0000
0000
0000
ENDCHAR
STARTCHAR charC6
ENCODING 198
SWIDTH 615 0
DWIDTH 16 0
BBX 13 26 2 -5
VVECTOR 9 21
SWIDTH1 0 -1000
DWIDTH1 0 -26
BITMAP 
0000
0000
0000
0000
0200
0200
0500
0500
0880
0880
1040
1040
1040
2020
2020
4010
4010
4010
8008
8008
FFF8
0000
0000
0000
0000
0000
ENDCHAR
STARTCHAR charC7
ENCODING 199
SWIDTH 615 0
DWIDTH 16 0
BBX 11 26 2 -5
VVECTOR 8 21
SWIDTH1 0 -1000
DWIDTH1 0 -26
BITMAP 
0000
0000
0000
0000
0000
0000
0000
0000
0000
0820
1040
2080
4100
8200
4100
2080
1040
0820
0000
0000
0000
0000
0000
0000
0000
0000
ENDCHAR
STARTCHAR charC8
ENCODING 200
SWIDTH 615 0
DWIDTH 16 0
BBX 11 26 3 -5
VVECTOR 9 21
SWIDTH1 0 -1000
DWIDTH1 0 -26
BITMAP 
0000
0000
0000
0000
0000
0000
0000
0000
0000
8200
4100
2080
1040
0820
1040
2080
4100
8200
0000
0000
0000
0000
0000
0000
0000
0000
ENDCHAR
STARTCHAR charC9
ENCODING 201
SWIDTH 615 0
DWIDTH 16 0
BBX 14 26 2 -5
VVECTOR 9 21
SWIDTH1 0 -1000
DWIDTH1 0 -26
BITMAP 
0000
0000
0000
0000
0000
0000
0000
0000
0000
0000
0000
0000
0000
0000
0000
0000
0000
0000
0000
C30C
C30C
0000
0000
0000
0000
0000
ENDCHAR
STARTCHAR charCA
ENCODING 202
SWIDTH 615 0
DWIDTH 16 0
BBX 0 0 0 -5
VVECTOR 0 -5
SWIDTH1 0 0
DWIDTH1 0 0
BITMAP 
ENDCHAR
STARTCHAR charCB
ENCODING 203
SWIDTH 615 0
DWIDTH 16 0
BBX 12 26 2 -5
VVECTOR 8 21
SWIDTH1 0 -1000
DWIDTH1 0 -26
BITMAP 
0180
0300
0400
0000
0000
0600
0900
0900
1080
1080
2040
2040
2040
4020
7FE0
4020
4020
8010
8010
8010
8010
0000
0000
0000
0000
0000
ENDCHAR
STARTCHAR charCC
ENCODING 204
SWIDTH 615 0
DWIDTH 16 0
BBX 12 26 2 -5
VVECTOR 8 21
SWIDTH1 0 -1000
DWIDTH1 0 -26
BITMAP 
1E20
23C0
0000
0000
0000
0600
0900
0900
1080
1080
2040
2040
2040
4020
7FE0
4020
4020
8010
8010
8010
8010
0000
0000
0000
0000
0000
ENDCHAR
STARTCHAR charCD
ENCODING 205
SWIDTH 615 0
DWIDTH 16 0
BBX 12 26 2 -5
VVECTOR 8 21
SWIDTH1 0 -1000
DWIDTH1 0 -26
BITMAP 
3C20
43C0
0000
0000
0000
3FC0
4020
8010
8010
8010
8010
8010
8010
8010
8010
8010
8010
8010
8010
4020
3FC0
0000
0000
0000
0000
0000
ENDCHAR
STARTCHAR charCE
ENCODING 206
SWIDTH 615 0
DWIDTH 16 0
BBX 13 26 1 -5
VVECTOR 8 21
SWIDTH1 0 -1000
DWIDTH1 0 -26
BITMAP 
0000
0000
0000
3DF8
4300
8100
8100
8100
8100
8100
8100
81F8
8100
8100
8100
8100
8100
8100
8100
4300
3DF8
0000
0000
0000
0000
0000
ENDCHAR
STARTCHAR charCF
ENCODING 207
SWIDTH 615 0
DWIDTH 16 0
BBX 13 26 1 -5
VVECTOR 8 21
SWIDTH1 0 -1000
DWIDTH1 0 -26
BITMAP 
0000
0000
0000
0000
0000
0000
0000
0000
0000
38E0
4510
8208
8208
8208
83F8
8200
8200
8200
8200
4508
38F0
0000
0000
0000
0000
0000
ENDCHAR
STARTCHAR charD0
ENCODING 208
SWIDTH 615 0
DWIDTH 16 0
BBX 7 26 4 -5
VVECTOR 8 21
SWIDTH1 0 -1000
DWIDTH1 0 -26
BITMAP 
00
00
00
00
00
00
00
00
00
00
00
00
00
FE
00
00
00
00
00
00
00
00
00
00
00
00
ENDCHAR
STARTCHAR charD1
ENCODING 209
SWIDTH 615 0
DWIDTH 16 0
BBX 16 26 0 -5
VVECTOR 8 21
SWIDTH1 0 -1000
DWIDTH1 0 -26
BITMAP 
0000
0000
0000
0000
0000
0000
0000
0000
0000
0000
0000
0000
0000
FFFF
0000
0000
0000
0000
0000
0000
0000
0000
0000
0000
0000
0000
ENDCHAR
STARTCHAR charD2
ENCODING 210
SWIDTH 615 0
DWIDTH 16 0
BBX 10 26 3 -5
VVECTOR 8 21
SWIDTH1 0 -1000
DWIDTH1 0 -26
BITMAP 
0000
0000
0000
30C0
6180
C300
C300
C300
0000
0000
0000
0000
0000
0000
0000
0000
0000
0000
0000
0000
0000
0000
0000
0000
0000
0000
ENDCHAR
STARTCHAR charD3
ENCODING 211
SWIDTH 615 0
DWIDTH 16 0
BBX 10 26 3 -5
VVECTOR 8 21
SWIDTH1 0 -1000
DWIDTH1 0 -26
BITMAP 
0000
0000
0000
30C0
30C0
30C0
6180
C300
0000
0000
0000
0000
0000
0000
0000
0000
0000
0000
0000
0000
0000
0000
0000
0000
0000
0000
ENDCHAR
STARTCHAR charD4
ENCODING 212
SWIDTH 615 0
DWIDTH 16 0
BBX 4 26 6 -5
VVECTOR 8 21
SWIDTH1 0 -1000
DWIDTH1 0 -26
BITMAP 
00
00
00
30
60
C0
C0
C0
00
00
00
00
00
00
00
00
00
00
00
00
00
00
00
00
00
00
ENDCHAR
STARTCHAR charD5
ENCODING 213
SWIDTH 615 0
DWIDTH 16 0
BBX 4 26 5 -5
VVECTOR 7 21
SWIDTH1 0 -1000
DWIDTH1 0 -26
BITMAP 
00
00
00
30
30
30
60
C0
00
00
00
00
00
00
00
00
00
00
00
00
00
00
00
00
00
00
ENDCHAR
STARTCHAR charD6
ENCODING 214
SWIDTH 615 0
DWIDTH 16 0
BBX 12 26 2 -5
VVECTOR 8 21
SWIDTH1 0 -1000
DWIDTH1 0 -26
BITMAP 
0000
0000
0000
0000
0000
0000
0000
0600
0600
0000
0000
0000
0000
FFF0
0000
0000
0000
0000
0600
0600
0000
0000
0000
0000
0000
0000
ENDCHAR
STARTCHAR charD7
ENCODING 215
SWIDTH 615 0
DWIDTH 16 0
BBX 12 26 2 -5
VVECTOR 8 21
SWIDTH1 0 -1000
DWIDTH1 0 -26
BITMAP 
0000
0000
0000
0000
0000
0000
0000
0600
0900
1080
2040
4020
8010
4020
2040
1080
0900
0600
0000
0000
0000
0000
0000
0000
0000
0000
ENDCHAR
STARTCHAR charD8
ENCODING 216
SWIDTH 615 0
DWIDTH 16 0
BBX 12 26 1 -5
VVECTOR 7 21
SWIDTH1 0 -1000
DWIDTH1 0 -26
BITMAP 
0000
0000
0000
0000
3060
0000
0000
0000
0000
4010
4010
2020
2020
1040
1040
0880
0880
0500
0500
0200
0200
0400
0400
0800
1000
E000
ENDCHAR
STARTCHAR missing
ENCODING -1
SWIDTH 615 0
DWIDTH 16 0
BBX 12 26 2 -5
VVECTOR 8 21
SWIDTH1 0 -1000
DWIDTH1 0 -26
BITMAP 
0000
FFF0
FFF0
80F0
8070
8030
FC30
FC30
FC30
FC30
F830
F070
F0F0
F0F0
F0F0
F0F0
FFF0
FFF0
FFF0
F0F0
F0F0
F0F0
FFF0
0000
0000
0000
ENDCHAR
ENDFONT
